<svg height="100%" width="100%" id="svg" viewBox="0 0 1440 600" xmlns="http://www.w3.org/2000/svg" class="transition duration-300 ease-in-out delay-150"><defs><linearGradient id="gradient"><stop offset="5%" stop-color="#002bdc88"></stop><stop offset="95%" stop-color="#32ded488"></stop></linearGradient></defs><path d="M 0,600 C 0,600 0,200 0,200 C 72.7751196172249,176.92822966507177 145.5502392344498,153.85645933014354 251,173 C 356.4497607655502,192.14354066985646 494.57416267942574,253.5023923444976 602,253 C 709.4258373205743,252.4976076555024 786.153110047847,190.133971291866 862,179 C 937.846889952153,167.866028708134 1012.8133971291866,207.96172248803828 1109,220 C 1205.1866028708134,232.03827751196172 1322.5933014354068,216.01913875598086 1440,200 C 1440,200 1440,600 1440,600 Z" stroke="none" stroke-width="0" fill="url(#gradient)" class="transition-all duration-300 ease-in-out delay-150"></path><defs><linearGradient id="gradient"><stop offset="5%" stop-color="#002bdcff"></stop><stop offset="95%" stop-color="#32ded4ff"></stop></linearGradient></defs><path d="M 0,600 C 0,600 0,400 0,400 C 86.6602870813397,400.4593301435407 173.3205741626794,400.91866028708137 275,402 C 376.6794258373206,403.08133971291863 493.37799043062205,404.78468899521533 589,385 C 684.622009569378,365.21531100478467 759.1674641148325,323.94258373205736 839,345 C 918.8325358851675,366.05741626794264 1003.9521531100479,449.44497607655506 1105,469 C 1206.047846889952,488.55502392344494 1323.023923444976,444.27751196172244 1440,400 C 1440,400 1440,600 1440,600 Z" stroke="none" stroke-width="0" fill="url(#gradient)" class="transition-all duration-300 ease-in-out delay-150"></path></svg>